<svg fill="#06cb0a" height="256px" width="256px" version="1.1" id="Layer_1" xmlns="http://www.w3.org/2000/svg" xmlns:xlink="http://www.w3.org/1999/xlink" viewBox="0 0 512 512" xml:space="preserve" stroke="#06cb0a">
    <g id="SVGRepo_bgCarrier" stroke-width="0"></g>
        <g id="SVGRepo_tracerCarrier" stroke-linecap="round" stroke-linejoin="round"></g>
            <g id="SVGRepo_iconCarrier"> 
                <g> <g> 
                <path d="M171.095,260.87c7.569,7.922,17.765,12.285,28.711,12.285c10.602,0,20.57-4.129,28.068-11.625l71.573-71.573 c7.497-7.497,11.625-17.464,11.625-28.066c0-10.602-4.128-20.57-11.625-28.067L227.872,62.25 c-7.642-7.642-17.798-11.794-28.613-11.621c-10.805,0.148-20.854,4.558-28.293,12.417c-14.631,15.456-14.089,40.475,1.208,55.773 l5.604,5.604c-36.018,8.197-68.658,26.26-95.307,52.909c-37.33,37.33-57.888,86.963-57.888,139.755 c0,52.793,20.559,102.425,57.888,139.754c28.307,28.308,63.873,47.142,102.853,54.469c2.464,0.463,4.938,0.69,7.398,0.69 c9.192,0,18.145-3.185,25.351-9.167c9.12-7.566,14.35-18.701,14.35-30.551c0-19.066-13.547-35.464-32.213-38.991 c-55.768-10.54-96.245-59.411-96.245-116.206c0-44.691,24.587-84.025,62.001-104.127 C157.035,228.062,158.672,247.866,171.095,260.87z M116.919,226.98c-21.505,25.095-33.349,57.096-33.349,90.106 c0,66.59,47.463,123.891,112.856,136.25c9.04,1.708,15.602,9.677,15.602,18.947c0,5.761-2.542,11.173-6.975,14.851 c-4.45,3.693-10.269,5.198-15.96,4.127c-34.926-6.563-66.807-23.453-92.197-48.845c-33.477-33.476-51.914-77.987-51.914-125.33 c0-47.344,18.436-91.854,51.914-125.33c28.216-28.216,63.906-45.698,103.213-50.556c3.869-0.477,7.127-3.119,8.394-6.805 c1.267-3.686,0.323-7.772-2.434-10.529l-19.47-19.469c-7.559-7.56-7.926-19.817-0.818-27.326 c3.621-3.825,8.507-5.972,13.759-6.043c0.091-0.002,0.183-0.002,0.273-0.002c5.153,0,9.986,2.001,13.638,5.651l71.573,71.573 c3.644,3.644,5.651,8.489,5.651,13.643c0,5.153-2.007,9.997-5.651,13.642l-71.573,71.573c-3.644,3.644-8.489,5.651-13.643,5.651 c-5.321,0-10.279-2.123-13.962-5.978c-7.176-7.512-6.846-19.793,0.738-27.377l21.834-21.834c3.133-3.133,3.885-7.932,1.859-11.873 c-2.025-3.941-6.362-6.123-10.735-5.402C167.525,185.588,138.181,202.167,116.919,226.98z"></path> </g> </g> <g> <g> <path d="M238.111,199.433c-3.984-3.983-10.442-3.983-14.425,0l-1.417,1.417c-3.983,3.984-3.983,10.442,0,14.425 c1.991,1.992,4.602,2.987,7.212,2.987s5.221-0.995,7.213-2.987l1.417-1.417C242.094,209.874,242.094,203.416,238.111,199.433z"></path> </g> </g> <g> <g> <path d="M281.432,156.169c-3.985-3.984-10.441-3.983-14.425,0l-23.419,23.42c-3.984,3.983-3.983,10.441,0,14.424 c1.992,1.992,4.602,2.987,7.212,2.987c2.61,0,5.22-0.996,7.212-2.988l23.42-23.419 C285.415,166.61,285.415,160.152,281.432,156.169z"></path> </g> </g> <g> <g> <path d="M487.417,194.912c0-52.792-20.558-102.425-57.888-139.754C401.221,26.851,365.656,8.016,326.676,0.69 c-11.673-2.193-23.613,0.894-32.75,8.475c-9.12,7.566-14.35,18.7-14.35,30.551c0,19.066,13.547,35.464,32.212,38.991 c55.768,10.54,96.246,59.411,96.246,116.206c0,44.692-24.585,84.025-62,104.127c8.932-15.104,7.295-34.908-5.129-47.912 c-7.569-7.922-17.765-12.285-28.711-12.285c-10.602,0-20.569,4.129-28.067,11.625l-71.574,71.573 c-15.476,15.476-15.476,40.658,0,56.134l71.573,71.573c7.51,7.51,17.452,11.625,28.051,11.625c0.187,0,0.374-0.001,0.563-0.003 c10.806-0.148,20.855-4.558,28.294-12.417c14.629-15.456,14.088-40.475-1.208-55.773l-5.604-5.604 c36.017-8.197,68.658-26.26,95.307-52.909C466.86,297.338,487.417,247.705,487.417,194.912z M311.891,370.799 c-3.868,0.477-7.126,3.119-8.393,6.805c-1.268,3.686-0.323,7.772,2.433,10.529l19.471,19.469 c7.558,7.56,7.925,19.817,0.817,27.326c-3.621,3.825-8.507,5.972-13.759,6.043c-5.203,0.071-10.193-1.934-13.909-5.649 l-71.574-71.573c-7.523-7.523-7.523-19.763,0-27.285l71.574-71.573c3.644-3.644,8.489-5.651,13.642-5.651 c5.32,0,10.279,2.124,13.961,5.979c7.176,7.512,6.846,19.794-0.738,27.377l-21.834,21.834c-3.133,3.133-3.884,7.932-1.859,11.873 c2.026,3.942,6.368,6.123,10.735,5.402c32.019-5.293,61.362-21.872,82.625-46.685c21.505-25.095,33.349-57.096,33.349-90.106 c0-66.59-47.463-123.891-112.857-136.25c-9.04-1.708-15.601-9.677-15.601-18.947c0-5.761,2.543-11.174,6.976-14.851 c4.451-3.693,10.265-5.199,15.959-4.127c34.925,6.563,66.805,23.453,92.196,48.845c33.477,33.476,51.914,77.987,51.914,125.33 c0,47.344-18.436,91.854-51.914,125.33C386.888,348.46,351.197,365.941,311.891,370.799z"></path> 
            </g> 
        </g> 
    </g>
</svg>